<?xml version="1.0" encoding="utf-8"?>
<!-- Generator: Adobe Illustrator 24.0.1, SVG Export Plug-In . SVG Version: 6.00 Build 0)  -->
<svg version="1.1" id="svg" xmlns="http://www.w3.org/2000/svg" xmlns:xlink="http://www.w3.org/1999/xlink" x="0px" y="0px"
	 viewBox="0 0 354 64.8" style="enable-background:new 0 0 354 64.8;" xml:space="preserve">
<style type="text/css">
	.st0{fill-rule:evenodd;clip-rule:evenodd;fill:#fff;}
</style>
<g id="svgg">
	<path id="path0" class="st0" d="M337.8,7c-6.4,2.2-8.5,10.3-3.9,14.9l1.4,1.4l-5.9,0c-14.2,0-23,8.5-19.9,19.2
		c1.1,3.7,5.8,8.6,8.1,8.6c2.3,0,3.4-3.8,1.4-4.7c-3.5-1.6-5.9-6.4-5-9.9c1.4-4.9,8.1-8.6,15.6-8.6c13.8,0,10.9,9.4-3.4,10.8
		c-3.6,0.4-5.2,2.8-3.2,4.8c0.7,0.7,0.5,0.7,5.1,0c3.8-0.5,10-0.7,11.5-0.3c3.4,0.9-4.3,5.5-10.2,6.1c-2.3,0.2-2.8,0.9-2.4,3.1
		l0.3,1.8l2.2-0.1c11.8-0.3,20.8-10.8,12.8-14.9l-1.9-1l0.9-0.9c3.3-3.1,3.2-8.1-0.3-11.1l-1.5-1.3h2c8.2,0,13-11.4,6.2-14.9
		c-2.3-1.2-5.4,2.3-3.5,3.9c0.3,0.3,0.8,0.7,1.1,1c1.9,1.7-1,5.2-4.3,5.2c-5.3,0-6.5-6.2-1.6-8.5c1.7-0.8,2-1.5,1.2-3.5
		C340.3,6.5,339.7,6.3,337.8,7 M219.7,10.7c-0.7,0.5-1.1,3-1.7,10.7l-0.4,5.4l-2.3,2.3c-4.2,4.2-6.4,10.1-6.4,17
		c0,4.4,0.2,4.7,3,4.5l2-0.1l0-4c0-4.6,0.8-7.5,2.9-10.8l1.2-1.9l0.5,2.8c2.3,14,12.7,19.2,19.3,9.6c7.2-10.4,1.1-22.3-11.1-21.8
		l-4.1,0.2l0.2-1.9c0.1-1,0.5-3.8,0.8-6.2c0.8-4.8,0.7-5.3-0.6-5.6c-0.5-0.1-1.3-0.3-1.7-0.4C220.7,10.3,220.1,10.4,219.7,10.7
		 M288.9,10.7c-6.1,2-12.3,8.2-12.8,12.8c-0.1,1.1-0.3,1.3-1.9,1.8c-5.3,1.8-8.6,4.9-11.5,10.7c-3.2,6.3-5.8,8.9-8.9,9.1
		c-6.3,0.4-8-8.2-2.5-12.9c2-1.7,2-2.9,0.2-4c-5.1-3-10.7,7.8-7.9,15.2c1.8,4.8,5.2,7,10.5,6.8c5.3-0.2,7.9-2.4,12.2-10.1
		c3.9-7.2,5.9-9.1,10.6-10.5c8.4-2.5,17.2,1.5,17.2,7.9c0,1.9-0.6,4.3-0.7,2.8c-0.3-8.9-19.4-10.5-23.5-2
		c-5.7,11.8,14.5,18.7,25.2,8.6c9.6-9.1,2.7-22.7-11.4-22.7h-2.5l0.8-1.5c3.7-6.5,13-9.5,17.3-5.6c2.8,2.5,2.7,1.8,2.9,22.2
		l0.2,18.2h2.2h2.2l0.1-18.9c0.1-21.1,0.1-21.3-2.3-24.4C301.7,10.8,294,9,288.9,10.7 M121,11.4c-0.5,0.6-1.4,6.5-1.8,11.7l-0.2,3.5
		l-2.6,0.2c-2.4,0.2-2.8,0.2-4.7-0.9C99.6,19.5,84.3,27,84.3,39.5c0,8,6.3,15.6,9.1,10.9c1-1.6,0.8-2.3-1.1-4.1
		c-7-6.7-1.6-16.8,9.2-17.2l3.3-0.1l-2.5,1.4c-12.2,6.6-9.5,22,3.7,21.4c9.1-0.4,15.6-10.1,12.1-18.1c-0.8-1.8-0.8-1.7,0.1-1.7
		c0.6,0,0.7,0.2,0.7,1.6c0,4.6,1.6,11.3,3.3,14c5.9,9.4,23.6-2,18.8-12.1c-1.9-3.9-9.7-8.2-15-8.2c-1.9,0-2-0.2-1.5-5.7
		c0.2-2.8,0.6-5.9,0.8-6.9C125.8,11.8,122.5,9.5,121,11.4 M25.6,22.4c-12.2,2.4-19,11.4-16.1,21.4c2,6.8,11.1,13.3,11.6,8.2
		c0.2-2.2-0.2-2.9-2-4c-7.3-4.8-6.4-14.3,1.8-18.4c5.2-2.6,15-3.3,19.5-1.4l1.5,0.7l-4.5-0.1c-14.3-0.4-23.5,6.7-19.3,14.9
		c5,9.7,27,10.7,30.4,1.4l0.5-1.5l0,3.1c0,3.7,0.2,4,2.1,4.3c2.4,0.3,3-0.6,3-4.4c0-10.9,7.1-16.9,16.1-13.9
		c3.5,1.2,6.7,4.4,6.7,6.6c0,0.6-0.2,0.5-1.2-0.8c-6.2-8.1-20.1-3.7-19.3,6.1c0.9,11,22.3,9.8,25.4-1.4c4.1-15.1-22.2-23.3-29.6-9.3
		L51.6,35l-1.9-1.8c-1.8-1.7-2-2-2.1-3.8C47,23.7,36.3,20.3,25.6,22.4 M188.3,24.2c-8.1,2.6-9.5,12.9-2.2,15.9
		c3.1,1.3,5.1,0.6,5.1-1.8c0-2.2-0.9-3.3-2.3-3.1c-2.2,0.4-3.3-2.3-1.7-4.4c3.1-3.9,14.7-2.7,14.7,1.4c0,4.3-5.2,8.5-12.9,10.4
		c-7.6,1.9-10.4,4.5-9.8,9.3c1.1,8.4,24.9,8.6,27,0.2c0.9-3.4-0.8-6.4-4.3-7.9l-1.8-0.8l1.4-1c6.6-4.8,7.2-13.7,1.2-17.4
		C199.5,23.3,192.6,22.9,188.3,24.2 M161.7,25.3c-9.9,0.9-15.8,4.9-15.8,10.6c0,3.5,1.9,5.7,6.2,7.1c1.3,0.4,2.2,0.8,2.1,0.9
		c-0.1,0.1-2.3,0.7-4.9,1.4c-6.2,1.7-6.7,2.2-5,4.9c0.7,1.1,0.9,1.2,1.9,1c5.8-1,6.9-1.1,11-0.7c14.4,1.5,18.4,1.3,19.6-1.1
		c0.6-1.2,0.8-12.1,0.2-12.7c-0.3-0.3-0.2-0.8,0-1.6C179.5,28.8,172.5,24.3,161.7,25.3 M231.8,30.2c6.1,3.4,4.3,15.4-2.3,15.4
		c-3.7,0-5.8-3.8-6.5-11.2c-0.1-1.4-0.3-2.9-0.4-3.4C222.3,29.3,229.2,28.7,231.8,30.2 M170.5,30.9c3.4,1.8,1.2,5.2-5.5,8.6
		c-3.9,1.9-4.3,2.1-4,1.2c0.3-1.2-0.5-1.7-3.5-2c-8.4-0.7-8.5-5.3-0.2-7.8C160.8,29.8,168.4,29.8,170.5,30.9 M130.2,33.4
		c6.7,2.1,8.6,6.5,4.3,10.1c-5.9,5-10.2,0.4-10.3-10.8C124.2,32,126.9,32.4,130.2,33.4 M112.6,34.3c3.4,6.8-3.5,15-9.7,11.6
		c-6-3.3-2.5-10.4,6.3-12.7C111.7,32.6,111.7,32.6,112.6,34.3 M38.1,34.3c-0.5,0.3-2,1-3.4,1.5c-5.2,2-5,4.9,0.4,5.5
		c7.6,0.8,10,2.6,5.5,4.2c-10.6,3.7-24.4-4.9-15.3-9.6C28.8,34.1,41.1,32.6,38.1,34.3 M47.8,39.4c0.5,1,0.9,2.2,0.9,2.6
		c0,0.6-0.1,0.5-0.5-0.4c-0.5-1.2-3.1-3.3-4.5-3.7c-1.1-0.3-1.1-0.6,0.1-1.6l1-0.8l1,1C46.5,37.1,47.3,38.4,47.8,39.4 M285.3,38.2
		c1.9,0.9,3.1,2.4,3.1,4.1c0,0.7,0.2,1.6,0.5,2c1.6,2.3-8.7,3.6-12.3,1.6C269.5,42,277.9,34.6,285.3,38.2 M70.3,40.4
		c0.6,0.4,1.6,1.4,2,2.2c0.7,1.1,1.1,1.4,1.9,1.4c1,0,1.1,0,0.4,0.7c-2,2.2-9.2,3-11.5,1.3C58.8,42.8,65.7,37.3,70.3,40.4
		 M172.4,44.2v2.4l-3.4,0c-5.2-0.1-5.7-0.3-2.8-1.5c1.3-0.6,3.1-1.5,4-2.1C172.4,41.5,172.4,41.5,172.4,44.2 M199.1,48.7
		c4.4,2.2,0.5,4.6-7.2,4.7c-8.6,0.1-10.5-3.5-3-5.4C191.4,47.4,197.3,47.8,199.1,48.7"/>
</g>
</svg>
